<svg width="671" height="183" viewBox="0 0 671 183" fill="none" xmlns="http://www.w3.org/2000/svg">
<rect x="610" y="122" width="61" height="61" fill="#A072DA"/>
<rect x="610" y="61" width="61" height="61" fill="#5697F7"/>
<rect x="549" y="122" width="61" height="61" fill="#D676D8" fill-opacity="0.35"/>
<rect x="488" y="122" width="61" height="61" fill="#FF4D4D" fill-opacity="0.35"/>
<rect x="549" y="61" width="61" height="61" fill="#7DCF80"/>
<rect x="610" width="61" height="61" fill="#61D0E8"/>
<rect x="488" y="61" width="61" height="61" fill="#FFA24D"/>
<rect x="549" width="61" height="61" fill="#FFA24D" fill-opacity="0.35"/>
<rect x="488" width="61" height="61" fill="#FF4D4D"/>
<rect x="122" y="122" width="61" height="61" fill="#7DCF80"/>
<rect x="122" y="61" width="61" height="61" fill="#FFC24A"/>
<rect x="61" y="122" width="61" height="61" fill="#A072DA" fill-opacity="0.35"/>
<rect y="122" width="61" height="61" fill="#5697F7" fill-opacity="0.35"/>
<rect x="61" y="61" width="61" height="61" fill="#FFA24D"/>
<rect x="122" width="61" height="61" fill="#61D0E8"/>
<rect y="61" width="61" height="61" fill="#FF4D4D"/>
<rect x="61" width="61" height="61" fill="#FFC24A" fill-opacity="0.35"/>
<rect width="61" height="61" fill="#D676D8"/>
<rect x="366" y="122" width="61" height="61" fill="#A072DA"/>
<rect x="366" y="61" width="61" height="61" fill="#5697F7"/>
<rect x="305" y="122" width="61" height="61" fill="#D676D8"/>
<rect x="244" y="122" width="61" height="61" fill="#FF4D4D"/>
<rect x="305" y="61" width="61" height="61" fill="#FF4D4D" fill-opacity="0.35"/>
<rect x="366" width="61" height="61" fill="#61D0E8"/>
<rect x="244" y="61" width="61" height="61" fill="#FFA24D"/>
<rect x="305" width="61" height="61" fill="#7DCF80"/>
<rect x="244" width="61" height="61" fill="#FFC24A"/>
</svg>
